PathFileType	4	(X/Y/Z)	stereocamera_static.trc
DataRate	CameraRate	NumFrames	NumMarkers	Units	OrigDataRate	OrigDataStartFrame	OrigNumFrames
28.086763070077865	28.086763070077865	20	15	mm	28.086763070077865	153	203
Frame#	Time	JOINT_NECK			JOINT_RIGHT_CLAVICLE			JOINT_LEFT_CLAVICLE			JOINT_RIGHT_SHOULDER			JOINT_LEFT_SHOULDER			JOINT_RIGHT_ELBOW			JOINT_LEFT_ELBOW			JOINT_LEFT_WRIST			JOINT_RIGHT_WRIST			JOINT_SPINE_3			JOINT_SPINE_2			JOINT_SPINE_1			JOINT_PELVIS			JOINT_RIGHT_HIP			JOINT_LEFT_HIP
		X1	Y1	Z1	X2	Y2	Z2	X3	Y3	Z3	X4	Y4	Z4	X5	Y5	Z5	X6	Y6	Z6	X7	Y7	Z7	X8	Y8	Z8	X9	Y9	Z9	X10	Y10	Z10	X11	Y11	Z11	X12	Y12	Z12	X13	Y13	Z13	X14	Y14	Z14	X15	Y15	Z15

153	1749651039.270000	166.341170	5.357459	882.519300	103.169456	1.015157	957.632600	239.689160	10.349348	896.286800	27.033970	-3.565028	993.483070	303.578260	13.146758	871.315100	-26.978780	-257.391040	1026.298900	351.495120	-218.799170	824.374600	nan	nan	nan	-59.177864	-389.279630	1011.513200	160.707430	-84.831590	860.189260	155.420240	-163.127620	822.722800	155.400930	-246.154930	811.401370	151.203080	-322.057040	790.452100	63.924500	-336.447900	824.839000	240.926670	-322.754500	798.562800
154	1749651039.303000	165.449890	4.659787	875.511100	103.170715	0.981957	957.549450	240.466360	10.309935	895.996030	28.196447	-4.082456	994.000500	303.284620	12.580827	871.091840	-26.291728	-255.838100	1025.997300	352.056560	-219.076870	825.072400	nan	nan	nan	-57.461426	-386.139750	1008.329600	162.074390	-84.529200	855.284040	156.502140	-163.090880	822.295000	155.612040	-246.164530	811.406970	151.510020	-322.532300	790.651140	64.852970	-337.154480	826.703600	242.296160	-323.446450	800.196350
155	1749651039.337000	164.738310	3.039047	871.002140	103.078620	-1.677185	956.567100	240.691330	7.810280	894.044500	29.710850	-6.383866	992.487900	302.481400	11.616185	871.262850	-25.818426	-253.830080	1026.587500	352.193240	-217.606530	825.398860	nan	nan	nan	-59.446390	-384.898040	1015.399200	162.885980	-84.314920	851.953570	157.262430	-165.370520	822.254900	155.714040	-246.221420	811.470600	151.711960	-322.933730	790.965560	65.081950	-337.949930	827.830400	243.100030	-323.987480	801.276100
156	1749651039.370000	164.370180	2.067566	869.811800	103.012140	-3.326088	955.879870	240.820560	6.255850	892.680100	30.520758	-7.832557	986.803500	301.870940	11.102483	871.462350	-26.118435	-255.082370	1029.196100	350.725400	-213.436680	826.377330	nan	nan	nan	-60.998250	-385.490360	1018.072000	161.448080	-84.372260	853.931300	155.510490	-166.972190	823.386900	153.460070	-246.252450	811.920600	151.931730	-321.230100	792.081400	64.918615	-337.279200	828.628900	241.507980	-323.069450	799.463450
157	1749651039.403000	164.327700	1.294240	870.443600	102.955070	-4.460528	955.375000	240.863430	5.188301	891.861400	31.144248	-9.185284	994.225260	301.756050	10.748327	871.888900	-25.879400	-254.250300	1026.155700	348.414660	-209.324960	829.508960	nan	nan	nan	-63.540146	-386.113520	1014.819500	160.409200	-84.628900	855.722500	154.276610	-168.083430	824.101450	151.950960	-246.464310	812.201140	149.799640	-320.293840	792.837600	63.686594	-337.646250	830.829200	239.167110	-321.667970	796.569500
158	1749651039.437000	164.335280	1.103148	870.965400	102.892460	-4.832059	954.782000	240.832280	4.831046	891.329050	30.874403	-9.342656	990.122900	301.239370	10.510132	869.245100	-25.487147	-261.006980	1025.956900	347.870530	-207.502080	834.711100	nan	nan	nan	-63.386336	-390.215580	1018.496300	159.784120	-84.671415	857.180660	153.540880	-168.523860	824.685340	151.089710	-246.498570	812.557000	148.378060	-319.682030	793.454700	61.512537	-338.496030	832.877600	238.385160	-320.747260	796.284500
159	1749651039.470000	164.391070	1.102641	870.118440	102.825190	-4.889980	954.420860	240.715200	4.790738	890.923000	30.818560	-9.191975	988.283160	301.020120	10.351807	867.022000	-26.078027	-259.596350	1027.688500	349.532870	-208.069040	839.239660	nan	nan	nan	-63.294016	-395.131600	1015.619500	159.489880	-84.722870	858.245000	153.173400	-168.632240	824.926140	150.761890	-246.599570	813.044400	147.431690	-321.212900	792.700650	58.952425	-339.994500	835.476000	237.054690	-320.002730	793.901800
160	1749651039.504000	164.480060	1.054466	868.008800	102.764420	-4.741624	953.796600	240.596440	4.917741	890.564440	30.285802	-8.365020	984.975340	301.470100	9.506509	864.586000	-25.972188	-266.767700	1027.628900	353.910420	-212.115630	842.787440	nan	nan	nan	-63.540960	-400.962600	1013.409100	159.450280	-84.757864	859.061660	153.067110	-168.563340	825.114370	150.476630	-248.464050	811.877800	147.031140	-322.513460	792.756800	56.726550	-341.438620	837.073900	239.736400	-323.471460	797.264900
161	1749651039.537000	163.463860	2.372771	867.716250	102.809350	-2.027988	954.383550	238.089890	5.059034	891.055700	29.037228	-5.532607	980.513330	300.805720	9.648830	865.924360	-27.176265	-267.160600	1027.917600	358.056200	-216.892300	842.656430	nan	nan	nan	-68.765596	-407.241760	1019.134200	159.549370	-84.839836	859.676900	153.110830	-168.472990	825.240700	150.777610	-248.135000	813.482700	149.306680	-323.614120	793.429600	56.605674	-343.264970	837.109450	243.877170	-325.104060	799.437200
162	1749651039.571000	163.099650	3.680468	868.095200	102.801660	-0.257298	954.340900	239.100440	7.529706	891.843500	27.476802	-3.114894	984.782300	301.742820	10.107100	867.256160	-28.101055	-265.364350	1028.130200	364.689320	-225.394010	836.360400	nan	nan	nan	-70.857630	-407.242720	1005.449000	159.702760	-84.979280	860.098800	153.243420	-168.458360	825.455960	150.833680	-249.647930	812.875000	146.662710	-324.906530	795.591600	53.988345	-344.618500	838.086900	242.844490	-326.551080	798.743960
163	1749651039.604000	162.554470	4.609600	871.396360	102.765970	0.875860	953.913700	237.597350	9.284630	893.314540	25.332302	-1.419723	979.107200	301.613800	10.449037	868.131760	-28.509809	-261.372750	1032.750500	366.552440	-218.699400	831.846500	324.631600	-279.777700	685.995940	-72.337635	-407.300920	996.329300	159.885330	-85.003290	860.543550	151.303920	-168.657390	827.462500	148.610440	-250.537800	812.623140	142.725200	-325.898400	797.847330	54.242823	-344.967340	837.634440	235.056330	-326.631900	795.778500
164	1749651039.637000	164.645520	4.533738	882.328100	102.672130	1.339361	952.909100	238.659220	7.811427	891.700800	25.734527	-0.646770	979.027800	302.352130	9.524852	869.658000	-28.997780	-259.214400	1032.393100	366.079750	-214.046180	811.622800	308.698740	-255.923840	657.605300	-76.666065	-408.366140	1005.408300	160.031230	-85.102335	860.796900	150.052490	-168.879000	828.712760	147.839350	-250.045240	816.903530	140.321270	-326.687500	799.514300	54.224227	-340.403560	826.074960	229.635270	-325.493570	794.175900
165	1749651039.671000	166.095960	3.418371	883.347400	102.579870	1.513347	951.944530	239.403320	6.694838	890.248500	26.530044	-0.896484	978.892400	305.616080	7.598475	875.613900	-29.542763	-259.229120	1032.340800	365.044300	-219.613760	775.433200	260.027470	-210.954430	573.384900	-78.213240	-402.636170	1009.593700	160.157490	-85.117020	861.064700	149.417390	-169.010240	829.633200	147.010940	-250.919760	816.298000	139.077720	-327.034950	800.317800	54.549135	-341.004370	831.960100	nan	nan	nan
166	1749651039.704000	166.132800	2.929360	884.973000	102.505215	1.458377	950.998800	239.775210	5.886659	888.792930	25.143895	-1.100734	983.196400	304.554400	6.751656	869.523900	-29.438940	-258.362620	1029.056500	359.577900	-221.814960	735.435000	202.395330	-169.412820	479.534980	-79.791380	-403.405400	1017.716400	159.656630	-91.703710	857.413200	148.669560	-181.648180	826.662960	148.203390	-272.580150	829.655300	136.178170	-340.027150	785.933400	55.262360	-342.593250	835.405500	nan	nan	nan
167	1749651039.738000	168.848290	3.550857	898.200750	102.362140	1.421124	949.858700	239.696820	5.527735	887.020100	25.939584	-1.711384	978.775100	303.738500	8.411914	866.266670	-28.941330	-260.065170	1034.335500	341.462820	-212.510820	694.408830	160.265830	-143.391190	415.678900	-79.201385	-398.055370	999.408300	159.231770	-95.922260	854.869250	151.952940	-192.250420	840.580100	149.630600	-287.811520	836.105760	133.245750	-345.191630	753.935340	55.309236	-334.761650	810.333200	nan	nan	nan
168	1749651039.771000	170.119420	4.707351	902.936500	102.205550	1.296639	948.292140	239.516820	7.693395	885.751100	26.401266	-2.164856	982.823300	300.827680	10.827333	856.189670	-27.851580	-259.135600	1027.163300	322.779360	-198.117210	654.053200	136.532930	-126.708020	392.034530	-77.182830	-394.159380	988.875400	158.870370	-98.240525	852.979500	151.945440	-197.843100	838.748400	147.836480	-295.466480	828.583300	136.803900	-371.305050	783.943900	53.712720	-329.417230	801.485500	nan	nan	nan
169	1749651039.805000	171.275300	5.245790	899.425270	101.999910	1.028091	946.451800	238.518920	9.051785	881.608840	27.539704	-2.886951	984.811540	297.164470	13.971493	846.188250	nan	nan	nan	296.886980	-176.787350	617.577000	116.496980	-116.873264	377.879650	nan	nan	nan	160.144610	-103.368446	846.204500	153.339620	-205.472370	827.472030	149.298640	-306.524930	814.918700	143.348410	-393.588700	777.499850	nan	nan	nan	nan	nan	nan
170	1749651039.838000	169.478300	10.364696	897.741560	101.823540	3.380716	944.923900	235.588950	14.603689	880.613570	27.434476	-3.007680	985.955700	292.359300	20.799622	840.594770	-29.285140	-262.105640	1010.833400	267.110700	-150.062370	583.322800	104.021480	-110.590406	373.679900	nan	nan	nan	161.072430	-103.995490	842.945000	152.124450	-207.203330	800.731400	150.089430	-308.440500	786.114300	147.561460	-401.034680	760.424140	nan	nan	nan	nan	nan	nan
171	1749651039.872000	167.739120	16.055763	894.210040	101.564280	7.504240	942.501500	233.561960	22.884070	879.834100	28.837856	-2.132505	984.077700	286.198740	29.650763	834.122200	-23.263270	-269.625070	1010.132400	244.081440	-128.949480	563.654400	87.684840	-102.455360	355.884600	nan	nan	nan	162.031080	-97.284170	844.321850	156.805630	-195.033580	788.266900	151.707600	-289.359630	740.397630	153.109760	-391.873120	739.119600	nan	nan	nan	nan	nan	nan
172	1749651039.905000	165.700930	19.255534	886.574100	101.096645	9.960696	937.783100	231.422680	27.745679	875.194670	30.400703	-0.846177	982.963440	280.693700	35.061255	825.682040	-18.581463	-256.340620	1007.339100	222.112000	-110.705620	546.671750	71.689800	-96.084535	334.482670	nan	nan	nan	162.954060	-83.645130	848.101400	160.195220	-175.165410	801.622750	141.444240	-236.728340	674.520300	154.120060	-348.701800	714.583800	nan	nan	nan	nan	nan	nan
